<svg id="Layer_1" data-name="Layer 1" xmlns="http://www.w3.org/2000/svg" viewBox="0 0 3911.8 1225.09"><defs><style>.cls-1{font-size:12px;fill:#231f20;font-family:MyriadPro-Regular, Myriad Pro;}.cls-2{letter-spacing:-0.01em;}.cls-3{letter-spacing:-0.01em;}.cls-4{fill:none;}.cls-5{fill:#010101;stroke:#010101;stroke-miterlimit:10;}.cls-6,.cls-7{fill:#171945;}.cls-7{isolation:isolate;font-size:233.21px;font-family:Futura-Medium, Futura;letter-spacing:0.14em;}.cls-8{letter-spacing:0.15em;}.cls-9{letter-spacing:0.14em;}</style></defs><title>armoredthings-logo-navy</title><text class="cls-1" transform="translate(3846.35 10.04)"><tspan class="cls-2">L</tspan><tspan x="5.5" y="0">o</tspan><tspan class="cls-3" x="12.08" y="0">r</tspan><tspan x="15.89" y="0">em ipsum</tspan></text><path class="cls-4" d="M2333.3,1.62" transform="translate(-78.56 667.08)"/><path class="cls-4" d="M1047.26,81.83" transform="translate(-78.56 667.08)"/><path class="cls-5" d="M583.06,126.41a1613.54,1613.54,0,0,0-504,0V53.91c83.5-15.6,167.7-19.4,252-19.8,84.3.3,168.6,4.2,252,19.8Z" transform="translate(-78.56 667.08)"/><path class="cls-6" d="M583.06,126.41a1613.54,1613.54,0,0,0-504,0V53.91c83.5-15.6,167.7-19.4,252-19.8,84.3.3,168.6,4.2,252,19.8Z" transform="translate(-78.56 667.08)"/><path class="cls-6" d="M580.26,270.41a1604.94,1604.94,0,0,0-501.7,0v-72.5c83.1-15.7,167-19.4,250.9-19.8,83.9.4,167.8,4.1,250.9,19.8Q580.21,234.06,580.26,270.41Z" transform="translate(-78.56 667.08)"/><polygon class="cls-6" points="72 1122.19 0.1 1081.1 0 762.29 72 762.29 72 1122.19"/><polygon class="cls-6" points="505 1081.1 432.9 1122.19 432.9 722.1 505 722.1 505 1081.1"/><polygon class="cls-6" points="288.1 1204.49 252 1225.1 216.1 1204.49 216.1 865 288.1 865 288.1 1204.49"/><text class="cls-7" transform="translate(665.41 994.74)">ARMORED THI<tspan class="cls-8" x="1983.6" y="0">N</tspan><tspan class="cls-9" x="2216.12" y="0">GS</tspan></text></svg>